<svg xmlns="http://www.w3.org/2000/svg" width="640" height="240" viewBox="0 0 640 240" role="img" aria-label="Anthos Seed letter, light background"><title>Anthos Seed letter, light background</title><rect x="0" y="0" width="640" height="240" rx="0" fill="#f6f4f8"/><g color="#7940bb"><g transform="translate(101 65) scale(1.7)"><g transform="translate(0 0)"><path d="M4 57V38C4 21 22 15 34 7V40C34 55 21 64 4 57Z" fill="currentColor"/><g fill="none" stroke="#f6f4f8" stroke-width="4" stroke-linecap="round" stroke-linejoin="round"><path d="M12 51L26 27" /></g></g><g transform="translate(45 0)"><g fill="none" stroke="currentColor" stroke-width="5.6" stroke-linecap="round" stroke-linejoin="round"><path d="M4 57V23 M4 38C4 17 34 17 34 38V57" /></g></g><g transform="translate(90 0)"><g fill="none" stroke="currentColor" stroke-width="5.6" stroke-linecap="round" stroke-linejoin="round"><path d="M13 8V44Q13 58 29 55 M3 24H29" /></g></g><g transform="translate(135 0)"><g fill="none" stroke="currentColor" stroke-width="5.6" stroke-linecap="round" stroke-linejoin="round"><path d="M4 57V6 M4 38C4 17 34 17 34 38V57" /></g></g><g transform="translate(180 0)"><g fill="none" stroke="currentColor" stroke-width="5.6" stroke-linecap="round" stroke-linejoin="round"><path d="M34 40C34 17 4 17 4 40C4 63 34 63 34 40Z" /></g></g><g transform="translate(225 0)"><g fill="none" stroke="currentColor" stroke-width="5.6" stroke-linecap="round" stroke-linejoin="round"><path d="M32 27C24 18 4 22 5 32C6 43 31 35 32 46C33 59 12 62 4 53" /></g></g></g></g></svg>
